<svg width="17" height="14" viewBox="0 0 17 14" fill="none" xmlns="http://www.w3.org/2000/svg">
<path d="M14.2266 0.600098H3.02659C2.39007 0.600098 1.77962 0.852954 1.32953 1.30304C0.879443 1.75313 0.626587 2.36358 0.626587 3.0001V11.0001C0.626587 11.6366 0.879443 12.2471 1.32953 12.6972C1.77962 13.1472 2.39007 13.4001 3.02659 13.4001H14.2266C14.8631 13.4001 15.4736 13.1472 15.9236 12.6972C16.3737 12.2471 16.6266 11.6366 16.6266 11.0001V3.0001C16.6266 2.36358 16.3737 1.75313 15.9236 1.30304C15.4736 0.852954 14.8631 0.600098 14.2266 0.600098ZM13.6906 2.2001L8.62659 6.0001L3.56259 2.2001H13.6906ZM14.2266 11.8001H3.02659C2.81441 11.8001 2.61093 11.7158 2.4609 11.5658C2.31087 11.4158 2.22659 11.2123 2.22659 11.0001V3.2001L8.14659 7.6401C8.28506 7.74396 8.45349 7.8001 8.62659 7.8001C8.79968 7.8001 8.96811 7.74396 9.10659 7.6401L15.0266 3.2001V11.0001C15.0266 11.2123 14.9423 11.4158 14.7923 11.5658C14.6422 11.7158 14.4388 11.8001 14.2266 11.8001Z" fill="#001640"/>
</svg>
